<svg viewBox="0 0 512 512" xmlns="http://www.w3.org/2000/svg">
  <path fill="#44a08e" d="
    M0,64 C0,28.7,28.7,0,64,0 H448 c35.3,0,64,28.7,64,64 V352 c0,35.3,-28.7,64,-64,64 H309.3 L185.6,508.8 c-4.8,3.6,-11.3,4.2,-16.8,1.5 s-8.8,-8.2,-8.8,-14.3 V416 H64 c-35.3,0,-64,-28.7,-64,-64 V64 m217,97 c9.4,-9.4,9.4,-24.6,0,-33.9 s-24.6,-9.4,-33.9,0 l-64,64 c-9.4,9.4,-9.4,24.6,0,33.9 l64,64 c9.4,9.4,24.6,9.4,33.9,0 s9.4,-24.6,0,-33.9 l-47,-47 l47,-47 M329,127 c-9.4,-9.4,-24.6,-9.4,-33.9,0 s-9.4,24.6,0,33.9 l47,47 l-47,47 c-9.4,9.4,-9.4,24.6,0,33.9 s24.6,9.4,33.9,0 l64,-64 c9.4,-9.4,9.4,-24.6,0,-33.9 l-64,-64 Z
  "></path>
</svg>